<svg width="24" height="22" fill="none" xmlns="http://www.w3.org/2000/svg"><path d="M23.553 4.99l-2.826-2.193c-.192-.124-.4-.22-.62-.284a2.405 2.405 0 00-.674-.117h-8.132l.953 5.989h7.18a2.4 2.4 0 00.673-.117c.234-.073.46-.174.62-.283l2.825-2.195c.16-.109.24-.253.24-.4 0-.146-.08-.29-.24-.4zM10.112 0h-1.19a.593.593 0 00-.595.599V4.79H4.36c-.198 0-.44.045-.675.119-.235.072-.46.171-.62.283L.24 7.385c-.16.109-.24.255-.24.401 0 .145.079.29.24.401l2.824 2.195c.16.109.385.21.62.281.235.073.477.118.675.118h3.968v10.181a.6.6 0 00.595.6h1.19a.593.593 0 00.594-.6V.6a.593.593 0 00-.595-.6z" fill="#B9D290"/></svg>