<svg width="64" height="64" fill="none" xmlns="http://www.w3.org/2000/svg"><g clip-path="url(#clip0)" fill="#fff"><path d="M49.723 5.355A31.872 31.872 0 0026.958.407a2.74 2.74 0 00-.415.04c-8.42 1.46-15.767 6.113-20.69 13.097C.932 20.532-.974 29.014.485 37.437a32.743 32.743 0 001.007 4.148 23.936 23.936 0 01-1.22 17.272 2.661 2.661 0 00.37 2.85 2.662 2.662 0 002.743.856L15.337 59.3c5.06 3.098 10.773 4.7 16.607 4.7 2.12 0 4.255-.21 6.38-.64 8.378-1.687 15.598-6.534 20.327-13.65 9.766-14.689 5.761-34.585-8.928-44.355zm4.49 41.404c-3.944 5.932-9.96 9.971-16.94 11.376-6.974 1.405-14.087.008-20.021-3.938a2.673 2.673 0 00-2.181-.349l-8.137 2.22a29.333 29.333 0 00-.349-16.067 27.162 27.162 0 01-.845-3.476c-1.216-7.017.373-14.087 4.473-19.91C14.244 10.893 20.23 7.05 27.1 5.769c.128-.006.253-.019.38-.04a26.554 26.554 0 0119.294 4.07c12.242 8.14 15.578 24.72 7.438 36.961z"/><path d="M32.01 15.738a2.664 2.664 0 00-2.665 2.666V34.4a2.665 2.665 0 105.332 0V18.404a2.663 2.663 0 00-2.666-2.666zm2.45 28.577a2.484 2.484 0 00-.56-.88c-.132-.107-.266-.24-.426-.32a1.544 1.544 0 00-.453-.24 1.545 1.545 0 00-.506-.16c-.85-.187-1.787.11-2.397.72-.24.24-.427.533-.56.88-.133.32-.213.666-.213 1.013 0 .346.08.693.213 1.013.133.32.32.613.56.88.267.24.56.426.88.56.32.133.666.213 1.013.213.346 0 .69-.08 1.01-.213.32-.134.61-.32.88-.56.24-.267.426-.56.56-.88.133-.32.213-.666.213-1.013 0-.347-.08-.693-.213-1.013z"/></g><defs><clipPath id="clip0"><path fill="#fff" d="M0 0h64v64H0z"/></clipPath></defs></svg>