<svg width="18" height="18" fill="none" xmlns="http://www.w3.org/2000/svg"><path d="M13.712 17.844a13.716 13.716 0 01-9.69-4.03A13.771 13.771 0 010 4.104a4.11 4.11 0 011.2-2.902A4.092 4.092 0 014.096 0c.23-.002.46.02.686.063.218.032.433.086.64.16a.89.89 0 01.58.67l1.22 5.352a.894.894 0 01-.232.821c-.116.125-.125.134-1.22.705a8.833 8.833 0 004.336 4.363c.579-1.107.588-1.115.713-1.231a.89.89 0 01.819-.232l5.342 1.222a.89.89 0 01.641.58 3.873 3.873 0 01.223 1.33 4.108 4.108 0 01-1.234 2.873 4.092 4.092 0 01-2.898 1.168z" fill="#B9D290"/></svg>