<svg width="312" height="86" fill="none" xmlns="http://www.w3.org/2000/svg"><path d="M119.219 29.734l-8 23.266h-3.344l-8-23.266h3.313l6.437 19.313 6.437-19.313h3.157zM121.818 53l7.843-23.266h3.813L141.318 53h-3.266l-2.109-6.5h-8.891l-2.109 6.5h-3.125zm13.265-9.14l-3.594-10.97-3.578 10.97h7.172zM154.526 53h-9.032v-2.375h2.969V32.109h-2.969v-2.375h9.032v2.375h-2.969v18.516h2.969V53zm12.13 0V32.484h-7.813v-2.75h18.719v2.75h-7.813V53h-3.093zm30.958 0h-16.25v-2.875l12.453-17.64h-11.891v-2.75h15.375v2.796L184.708 50.25h12.906V53zm25.895 0h-3.093V32.953l-6.063 13.64h-1.875l-6.015-13.64V53h-2.891V29.734h4.219l5.812 12.953 5.61-12.953h4.296V53zm5.083 0l7.844-23.266h3.813L248.092 53h-3.265l-2.11-6.5h-8.89l-2.11 6.5h-3.125zm13.266-9.14l-3.594-10.97-3.578 10.97h7.172zM270.066 53h-3.093V41.61h-10.704V53h-3.093V29.734h3.093v9.125h10.704v-9.125h3.093V53z" fill="#0D0D0D"/><path fill-rule="evenodd" clip-rule="evenodd" d="M19.846 78.704c-.824.034-1.568-.398-.41-.551 2.434-.323 4.422-1.35 3.93-4.048-.072-.4-.213-.65-.554-.15-2.104 3.076-6.774-.124-8.123.862-.674.494-.582-.123-.308-.405 1.329-1.375 4.974.295 6.321-.534 1.453-.895 1.444-3.995 4.628-5.048.308-.103.362-.325-.065-.423-.885-.205-2.104-.27-3.532.639-.83.528-.793.118-.353-.379 1.842-2.081 4.314-1.274 6.533-1.09 4.215.348 5.829-1.301 7.909-4.642.497-.799.214-1.678-.653-.645-2.1 2.503-5.348 4.151-9.443 3.348-3.08-.605-5.1.302-5.623 3.357-.27 1.569-.475 3.334-3.785 3.16-.876-.047-1.65-.598-.472-.729 4.286-.474 1.357-4.849 4.4-6.2.529-.235.594-.494-.261-.543-6.634-.375-1.905 5.98-8.585 6.756-1.129.132-1.631-.585-.66-.693 4.353-.48 2.911-4.47 4.628-6.017.467-.42.251-.536-.24-.476-2.953.359-5.319 4.292-9.3.672-.6-.547-.302-.85.132-.574 2.298 1.464 4.295.435 4.886.062.327-.205.185-.398-.07-.445-3.877-.714-2.772-4.47-7.545-5.134-.8-.111-.895-.564-.324-.593.79-.041 2.551.065 3.304.583.36.248.565.18.436-.196-.32-.923.085-1.961-.847-3.189-1.175-1.545-3.901-1.532-4.968-3.976-.46-1.05-.062-1.352.697-.28 1.489 2.103 3.937 2.058 5.25 3.42 2.116 2.196.273 6.833 5.632 8.112 2.35.561 4.516-.393 6.405-.352 2.72.06 4.31 1.539 8.545 1.42 1.334-.037 1.819-.955.034-.829s-4.607-1.145-6.082-1.759c-3.515-1.458-6.647 1.396-9.642-.625-1.026-.69-.947-1.436.059-.785 1.843 1.193 4.417-.272 6.679-.351.505-.018.515-.123.105-.369-1.488-.892-3.222-.743-5.184-.872-1.512-.097-3.115-.954-3.65-1.909-.534-.954-.205-1.51.217-.909 2.195 3.143 7.455.335 11.403 3.502 2.145 1.72 4.655 2.647 7.624 2.185 10.273-1.599 8.523-14.651 3.23-14.844-3.265-.119-5.133 4.093-9.4 3.865-2.202-.118-3.572-2.214-5.81-2.011-.748.068-1.026.082-.815-.513.606-1.71 3.015-2.661 4.713-2.54 2.464.174 2.926 1.482 4.817 1.397.34-.015.954.113.195.593-1.546.977-3.644.2-4.268-.096-.732-.346-.957.274-.285.615 3.266 1.65 5.571.011 8.322-2.42 2.751-2.432 5.412-.683 6.64.792 1.227 1.476.807-.442.443-1.09-.364-.648-2.207-3.59-5.411-2.431-3.205 1.159-4.911 1.842-8.64.546-4.803-1.668-8.11 3.444-12.607 4.388C4.75 48.424 3.241 45.298.605 44.09c-.822-.375-.76-.674-.037-.924 7.13-2.441 7.972.751 10.894.807.548.01.596.191.18.486-1.229.866-2.582 1.05-4.075.734-.868-.183-1.012.465-.136.694 3.759.984 8.314-2.6 9.535-3.65.288-.248.565-.398.26-.806-.797-1.052-2.69-2.294-5.403-2.2-.88.03-2.093.906-4.22.687-3.35-.346-4.331-2.012-6.518-2.684C.21 36.963.36 36.629.89 36.15c2.614-2.365 8.177-4.265 11.977-.121.52.568.176.754-.336.571-.81-.288-4.268-1.505-6.952-.605-1.056.354-.445.622.17.556 3.078-.325 5.51.455 8.194 1.375 3.997 1.37 5.395 2.764 6.51 2.513 1.113-.25 2.089-.355 4.17.35 2.08.704 3.672.238 4.024.045.353-.193.41-.534-.432-.42-.843.113-2.8-.38-4.073-1.403-1.688-1.355-2.502-3.856-5.727-5.665-2.21-1.24-5.113-1.026-7.208-1.068-4.528-.094-6.95-3.047-7.708-4.816-.718-1.672.175-1.41 1-1.159 2.33.707 4.825.04 6.93.568 3.035.76 4.748 3.096 4.347 2.975-1.463-.435-4.847.4-7.144-1.154-.865-.585-1.069.154-.476.648 3.39 2.82 9.012-1.124 14.623 4.846.704.75.545-.318.364-.84-.182-.523-.433-2.614-2.002-3.91-1.57-1.294-4.934-.93-7.117-2.769-2.183-1.838-3.41-5.499-3.615-6.477-.205-.977.65-.659 1.192-.243 1.39 1.073 2.72 1.135 4.61 2.037 2.351 1.119 3.669 2.897 4.093 3.931.226.552.096.667-.348.53-1.796-.553-3.644-1.823-5.132-3.232-.818-.776-1.003-.193-.522.474.368.513 2.387 2.824 6.73 4.275 3.885 1.3 4.238 5.533 5.252 8.317 1.065 2.924 5.335 2.36 7.549 2.09 2.938-.358 5.355 1.786 6.067 3.123.821 1.543 1.226.285.913-.759-.359-1.199-1.231-3.895-4.047-4.848-2.314-.783-4.083.9-7.49-.775-2.449-1.205-2.812-5.332-3.834-6.58-.595-.727-.269-.863.257-.808 6.153.637 5.074 4.278 6.45 5.216.312.214.15.398-.246.384-1.74-.066-2.742-1.017-3.369-2.542-.446-1.086-.745-.391-.318.795.48 1.334 1.987 2.915 3.775 2.795 1.533-.103 2.66-.931 3.592-.864.543.04.8-.484.553-.933-4.971-9.014-13.396-7.967-18.265-10.997-4.355-2.708-4.61-7.893-4.256-9.382.158-.66.497-1.03 1.027-.185 1.415 2.26 4.617 1.553 5.308 6.944.077.602-.369.645-.56.544-1.65-.864-2.394-2.052-3.088-3.078-.569-.84-.75-.295-.182.773 1.823 3.425 4.966 4.253 8.482 4.747.853.12 1.196-.014 1.386-.587.295-.892.564-2.938.118-4.196-.616-1.727-2.346-1.918-3.415-4.531-1.068-2.613-.368-4.654-.909-6.408-.244-.79-.051-.94 1.25-.477 3.678 1.306 5.954 4.507 5.243 9.414-.167 1.15-.565.896-.65-.051-.201-2.288-1.612-4.642-2.796-5.75-.607-.567-.796-.118-.296.523 3.323 4.258 2.294 11.147 3.98 12.816.478.475 1.91.574 3.387 1.41.554.313.789.232 1.043-.667.902-3.197 2.897-3.753 4.863-5.47 1.467-1.283 2.365-2.835 2.348-4.61-.023-2.34-2.419-3.91-2.255-6.997.16-3.011 2.002-3.68 2.732-5.841.22-.65.39-.667.818-.165 2.04 2.39 3.377 5.875 1.58 9.32-.359.688-.718 1.23-1.037.461-.238-.577-1.152-3.252-.632-5.933.193-.99-.48-.776-.606-.18-1.08 5.144 1.856 8.262.357 12.193-.252.66.296.523.796.364.5-.159 4.388-.636 6.524-3.636 2.136-2.999 1.515-6.997 1.242-7.63-.272-.635-.737-.253-.616.386.184.947.565 5.283-2.401 7.72-.481.395-.643.051-.53-.492.56-2.676-.39-4.058-.065-6.348.355-2.508 2.387-3.855 3.118-5.377.444-.923.857-.85 1.553.15.568.819 2.725 3.5 1.413 8.202-1.184 4.248-4.625 7.388-9.443 8.843-4.818 1.454-6.662 5.18-6.071 8.36.98 5.273 5.26 5.757 7.026 9.95.195.462.868.579.74-.563-.524-4.706-4.718-5.498-5.277-9.43-.2-1.406.134-2.806.853-3.772 1.386-1.863 3.459-1.867 4.003-2.39.545-.523.686-.024.63.564-.45 4.698-2.527 4.224-2.728 5.78-.043.334-.313.132-.385-.135-.327-1.205.055-2.254.498-2.788.431-.52-.044-.606-.427-.28-.718.608-1.796 3.325.74 5.362.68.547.7.212.796-.275.759-3.822 5.826-3.805 5.275-8.575-.103-.91-.517-.524-.492 0 .065 1.353-.551 3.012-1.782 3.566-.473.212-.495-.189-.277-.65.9-1.912-.913-4.839 3.596-6.577 1.148-.443.821.217.733.94-.253 2.086 1.113 4.527-1.608 6.799-2.187 1.826-4.89 3.96-3.862 7.33.64 2.103 3.074 4.161 2.145 9.95-.113.707.339.796.546.296 1.074-2.594 1.048-5.469-.212-8.045-2.428-4.967 1.335-7.098 2.053-7.726.624-.542.727-.174.66.569-.148 1.636.462 3.234-.828 5.011-.302.416-.483.288-.579-.048-.078-.278-.237-1.664.205-2.827.154-.406-.168-.48-.359-.076-1.327 2.777.202 4.905.565 5.586.362.682.615.244.783-.187.355-.9 1.061-2.056 2.8-3.676.885-.825.852-2.228-.048-3.613-1.642-2.527-1.534-6.13 1.207-8.01 2.357-1.616 2.61-3.847 2.595-4.692-.012-.709-.425-.513-.498-.031-.22 1.46-.96 3.012-2.258 3.78-.603.356-.948.05-.443-.682.872-1.265-.024-3.986 2.832-6.16.838-.64 1.483-.635 1.344.264-.22 1.419 1.837 3.8-.598 6.39-1.08 1.15-2.708 1.63-3.37 3.386-1.008 2.671.78 5.097 1.745 6.155.713.782 1.133.705 2.041.063 7.98-5.642 6.2-14.23 4.894-16.85-.524-1.05-1.311-.821-.75.272.643 1.257.927 5.614.56 7.004-.222.844-.727.517-.817-.205-.34-2.71-2.361-3.308-2.449-7.196-.059-2.6.501-3.778.538-6.352.016-1.052.654-.675 1.526.134 5.122 4.75 5.2 13.89 3.224 18.562-3.469 8.205-12.275 8.357-12.207 17.348.017 2.273 1.355.77 1.819.296 4.142-4.237 10.44-1.88 10.527-9.113.052-4.042 1.842-5.308 3.48-6.521 1.818-1.348 2.194-2.714 2.225-3.31.027-.505-.393-.622-.523-.13-.43 1.626-2.058 2.944-3.271 3.642-.705.407-.536-.183-.228-.66 1.022-1.577.306-3.2 1.767-4.729 1.195-1.25 2.365-1.013 2.781-1.997.226-.533.77-.73.913.191 1.27 8.14-4.157 7.243-5.235 10.105-.75 2 .182 3.09.227 3.68.046.592.443.366.71.151 3.468-2.807 8.026-1.084 9.09-6.671.195-1.022-.42-1.01-.595-.36-.261.969-.952 3.139-3.088 3.793-.845.256-.635-.434-.23-.938 1.107-1.375.261-3.53 1.434-5.28 1.488-2.225 3.534-2 4.16-4.103.206-.683.698-.938.987.504 1.267 6.322-.196 9.962-6.885 12.464-2.114.79-4.849 2.477-5.81 4.216-.424.77-.807 1.736-1.648 2.439-.754.63-.356.793.075.825 3.695.271 13.68 4.565 16.23-6.8.214-.953-.397-.991-.647-.191-.673 2.158-2.234 4.792-4.054 5.581-.77.336-.932-.132-.559-.987.793-1.818.278-5.252 2.971-6.997 2.887-1.87 3.274-2.303 3.62-3.428.257-.825.887-.385 1.048.872.892 7.003-.36 10.771-5.602 13.295-7.886 3.795-15.421-1.148-20.848 3.3-1.456 1.193-.102.95.773 1.022 4.838.395 7.912 5.345 13.377 3.34.817-.3.8-1.034-.417-.695-1.664.462-3.86.264-5.65-.718-.934-.513-.344-.714.47-.779 1.098-.087 3.267-1.773 5.446-.887 2.897 1.176 3.691 1.17 4.305.853.437-.227.656.317.296.886-2.127 3.364-4.856 3.941-8.945 3.077-3.095-.653-9.154-4.234-13.301-1.878-5.594 3.177-3.567 12.653 3.9 11.302 4.722-.855 6.335-2.157 8.905-2.215 2.069-.047 7.39 2.455 9.934.39 1.246-1.011 1.268-.308.577.55-.661.82-2.11 1.749-3.653 1.692-2.762-.098-4.755-1.518-6.62-.583-.719.36 1.524 1.995 3.417 2.303 1.094.177.62.678-.97.49-3.045-.36-4.268-2.37-6.321-1.559-1.878.74-3.376 1.338-5.188 1.242-.784-.041-1.299.263.037.868 1.036.469 3.424 1.564 6.44.63 2.63-.816 4.188.931 6.326.539 1.84-.339 2.059-1.892 4.41-2.326 2.669-.492 3.912-.688 5.192-4.343 1.327-3.789 3.628-4.883 5.616-4.863 1.335.013.763.767-.096.8-1.191.046-3.032 1.242-3.758 3.836-.636 2.272-1.147 3.158-1.694 3.68-.405.389-.094.37.388.346 1.493-.075 2.523-1.002 3.322-2.19.513-.758.64-.234.344.516-.298.76-1.145 2.899-3.64 3.123-2.23.2-3.924.264-4.768.785-.365.225-.446.485.193.693 2.156.702 3.06 2.499 5.277.979.343-.236.498.189-.103.615-3.285 2.321-4.78-.879-7.426-.66-1.638.134-1.465 2.282-6.37.694-.492-.16-.7-.057-.385.531.516.962 2.339 2.14 4.073 1.671 1.903-.512 3.424-1.048 4.378.27.955 1.317-.188 2.576 1.232 3.236.893.415.222.797-.605.486-1.972-.744-.926-2.54-2.131-2.928-1.523-.49-2.737 1.567-5.754.672-.385-.114-.48-.116-.52.219-.052.42-.168 1.342.446 1.834 1.386 1.114 6.55-.612 4.119 4.514-.473.996-1.044 1.12-.897.287.162-.917.868-2.73-.894-2.758-1.41-.023-2.501.09-3.206-.386-.706-.477-2.115 1.186-1.66 2.09.363.718 2.364.41 2.729 1.432.27.759-.296 2.252-.813 3.035-.429.65-1.187.93-.642-.23.172-.366.595-2.083-.365-2.424-1.09-.388-2.195-.178-2.704-.923-.316-.462-.661-.341-.654.134.03 2.03 1.75 2.213 1.779 3.586.016.793-.64 1.627-1.288 2.29-.607.621-1.497 1.118-.657-.31 1.378-2.341.423-1.814-.282-2.852-.257-.375-.377-.147-.528.321-.16.494-.89 1.626-1.842 2.042-1.094.478-1.48 1.594-1.5 2.469-.027 1.262-.58.909-.693.344-.223-1.123-.078-2.825.9-3.552.977-.727 1.594-1.007 1.966-2.904.4-2.045.54-3.731 2.559-4.606 2.62-1.134 2.008-4.177 1.296-5.544-1.872-3.59-7.952.803-13.414-6.837-.679-.949-1.089-.342-.728.546 3.48 8.561 11.924 4.166 12.982 8.631.286 1.208-.362 1.045-.645.436-.677-1.459-2.814-1.379-3.383-1.447-.568-.068-.975.145-.336.759.64.613 1.23 1.633 1.256 2.765.04 1.737-1.147 3.779-1.074 5.087.068 1.22-.315 1.137-.724.375-.645-1.203.354-3.2.08-5.317-.354-2.718-3.825-4.216-5.921-5.357-2.007-1.093-5.925-2.833-5.773-10.72.031-1.587-.725-1.147-.83.196-.737 9.345 4.658 11.22 7.196 12.593 3.37 1.823 4.343 4.817 2.424 8.35-1.631 3-1.928 5.459-.261 7.027.526.495.135.755-.344.401-1.848-1.36-2.432-3.325-1.591-5.526.12-.314.029-.35-.1-.247-1.27 1.03-2.602 1.073-3.284 1.635-.782.642-1.154 2.526-1.129 3.18.034.841.568 1.432 1.046 1.886.478.455-.046.58-.682.228s-1.375-1.023-1.615-1.84c-.239-.819.262-2.671.398-2.967.064-.138-.085-.2-.288-.197-1.903.011-4.014 3.667-2.771 5.265.318.41-.012.455-.466.16-.898-.584-1.045-1.368-.831-2.265.039-.163.034-.25-.112-.262-1.581-.125-3.81.954-4.901 2.411-.222.297-.776.389-.492-.202 2.07-4.303 3.982-2.451 5.79-3.99.616-.524 1-.821 1.171-1.137.171-.316-1.978-.637-2.57-.489-.59.148-2.376.773-2.899 1.193-.523.42-.84-.011-.17-.636.67-.626 2.808-1.898 3.877-1.988.78-.066 2.143.303 3.336.366 2.603.137 6.672-1.76 7.72-4.265.43-1.028.436-2.233-.947-3.26-.719-.53-.616-.227-.773.398-.157.626-.455 1.625-1.797 2.193-1.341.568-1.137 2.352-1.18 2.738-.044.386-.455.41-.557-.227-.102-.638-.353-2.318.398-3.078.751-.76 2.078-1.559 1.817-2.718-.26-1.16-1.887-1.512-2.433-1.875-.546-.364-.591-.114-.557.602.034.716.011 1.5-.523 2.147-.534.648-.534 1.59-.41 1.898.123.308-.342.443-.617-.102-.274-.546-.5-1.864-.068-2.489.432-.625.194-2.943-.364-3.738-.45-.644-.961-1.198-1.18-1.833-.267-.77-.507-.923-.83.14-.578 1.898-3.029 2.815-2.632 5.31.274 1.725 4.552 2.196 4.269 6.29-.056.803-.492.308-.513-.182-.076-1.906-2.794-2.68-4.196-3.93-.47-.42-.615-.137-.41.534.205.67.843 2.77-.682 4.282-.735.728-.656.237-.383-.263 1.32-2.417-1.252-4.865-.875-7.616.419-3.053 4.903-4.51 4.691-10.23-.046-1.228-.648-1.06-.762-.015-.578 5.317-5.681 6.764-6.846 9.741-1.085 2.775 3.325 6.458 1.54 10.672-.749 1.768-2.779 2.205-3.278 4.483-.282 1.289-.818 1.074-.796-.068.012-.62.042-2.297 1.682-3.69 1.558-1.321 1.194-3.788.49-3.993-.705-.205-.985.783-3.9 1.048-1.926.174-2.07 1.18-1.865 2.294.204 1.116-1.54 2.53-2.949 2.69-1.409.159-.992-.477-.318-.763 1.573-.666 2.039-1.303 1.88-3.38-.112-1.459 1.137-2.14 3.195-2.357 2.31-.242 3.186-1.85 2.08-4.37-.627-1.43.065-2.423.6-3.132.325-.43-.007-.883-.55-.41-.637.553-1.413.888-2.192 1.081-2.163.537.177 3.36-.294 4.342-.406.845-1.9 1.59-2.68 1.597-.77.007-.455-.442-.057-.58.975-.334 1.773-1.188 1.24-2.01-.317-.488-.918-1.27-.725-2.018.197-.766-.89-.815-1.367-.755-1.319.165-2.777.931-2.366 2.363.601 2.09 1.78 6.113-4.963 6.397h.005zM66.753 37.63c.01.69 2.294-.47 2.4-3.125.027-.658-2.446.314-2.4 3.125zm-10.326-.634c-.316.308-.513.368-.691-.245-.407-1.42.154-2.891 1.255-3.942.183-.175.286-.107.402.293.263.9.457 2.513-.966 3.894zm1.606-13.08c.352.599.63.778 1.155-.081 1.217-1.992.985-4.467-.257-6.531-.205-.342-.39-.284-.736.277-.777 1.261-1.753 3.637-.164 6.335h.002zm-2.375 2.077c.316.308.513.369.691-.244.407-1.42-.154-2.892-1.255-3.943-.183-.175-.286-.108-.402.293-.263.9-.458 2.513.966 3.894zM23.356 28.11c.39.206.599.206.593-.43-.014-1.476-.968-2.73-2.326-3.425-.225-.115-.305-.021-.303.395.006.938.278 2.541 2.036 3.46zm-5.26 10.61c.667.126.975.037.683-.901-.681-2.175-2.65-3.597-4.965-4.015-.384-.069-.462.103-.27.718.427 1.383 1.546 3.627 4.552 4.197zM5.998 32.947c.5-.092.695-.238.235-.816-1.067-1.34-2.831-1.805-4.568-1.472-.287.055-.294.197.006.576.673.854 2.064 2.125 4.325 1.711h.002zm4.157-7.314c.645.132.948.05.676-.865-.629-2.122-2.52-3.531-4.76-3.97-.372-.073-.448.094-.272.693.394 1.348 1.446 3.544 4.356 4.142zm2.925-6.096c.504.2.761.177.674-.604-.206-1.812-1.534-3.227-3.288-3.907-.29-.113-.377.012-.321.523.125 1.15.662 3.083 2.935 3.987zm8.93.834c.27.172.422.187.457-.275.079-1.073-.536-2.04-1.475-2.628-.154-.098-.22-.034-.245.268-.054.68.044 1.86 1.262 2.635h.002zm2.596-.733c.372.236.58.257.63-.379.111-1.475-.734-2.806-2.03-3.613-.214-.134-.302-.048-.335.369-.075.936.06 2.558 1.735 3.624zm-4.128-4.595c.659.386 1.021.41 1.065-.695.103-2.565-1.443-4.814-3.737-6.133-.38-.218-.527-.064-.558.66-.072 1.625.262 4.427 3.23 6.168zm15.038 2.896c.41.158.62.138.541-.496-.181-1.468-1.273-2.605-2.702-3.141-.237-.089-.307.013-.256.427.111.932.564 2.496 2.417 3.21zm-5.8 2.497c-.538.41-.855.466-1.01-.502-.359-2.244.77-4.387 2.652-5.786.312-.232.457-.11.56.522.232 1.423.23 3.924-2.202 5.766zm7.72-4.826c.715.434 1.112.465 1.18-.746.154-2.808-1.509-5.3-4.003-6.781-.414-.246-.577-.078-.623.714-.102 1.781.22 4.858 3.448 6.813h-.002zm.184-2.047c.139.76-.437.79-.571.194-.135-.594-1.18-2.824-.995-2.994.186-.17 1.42 1.995 1.566 2.8zM33.81.946c.113-.466 1.839.504 2.654 1.856.868 1.44.878 3.989.184 3.838-.456-.1-3.907-1.266-2.838-5.694zm-2.353 10.646c-.457.866-.837 1.14-1.638-.038-1.854-2.73-1.693-6.241-.084-9.24.267-.496.532-.426 1.058.342 1.184 1.729 2.722 5.017.664 8.935zm-.318-2.622c-.174.753-.714.552-.602-.047.112-.599.033-3.06.271-3.143.238-.082.514 2.393.33 3.19zm24.294.758c-.521.594-.873.736-1.275-.337-.938-2.486-.154-5.205 1.672-7.25.302-.339.497-.234.764.466.602 1.575 1.189 4.44-1.16 7.12h-.001zm.308-1.693c-.235.586-.647.356-.48-.114.165-.47.41-2.468.615-2.504.205-.037.115 1.997-.134 2.615l-.001.003zm11.393 9.476c.596 1.389 3.994-3.273 2.002-8.74-.493-1.355-4.43 3.081-2.002 8.74zm5.204 3.33c.326 1.197 3.79-1.84 2.795-6.512-.246-1.158-4.122 1.633-2.794 6.511zm-12.803 14.78c.201.508 1.99-.859 2.693-2.509.749-1.758.355-4.629-.401-4.35-.498.184-4.198 2.044-2.292 6.859zm10.66 2.36c.05.543 2.15-.27 3.284-1.658 1.21-1.48 1.636-4.345.83-4.288-.528.038-4.6.79-4.116 5.946h.001zm6.339 9.93c-.913-.35-1.03-.632-.61-1.02 3.118-2.879 4.068-.83 6.826-1.96.593-.243 1.008-.164.477.704-.436.714-3.049 3.674-6.694 2.275zm9.098-7.956c.553-.87.602-1.358-.89-1.47-3.456-.26-6.569 1.72-8.461 4.752-.313.502-.111.707.864.784 2.193.173 5.993-.144 8.487-4.067zm-6.708 2.76c-.74.22-.833-.35-.257-.548.576-.198 2.68-1.481 2.87-1.315.19.166-1.83 1.628-2.614 1.862zM.478 39.505c-.513.166-.695.346-.133.888 1.304 1.255 3.216 1.496 4.986.906.294-.098.28-.248-.085-.603-.824-.798-2.458-1.937-4.768-1.19zM54.316 48.4c-.692.265-.78.478-.462.772 2.36 2.183 3.084.628 5.175 1.487.45.184.764.125.362-.533-.331-.542-2.31-2.787-5.075-1.726zm-20.683.024c.564.385.606.61.281.842-2.412 1.726-2.795.069-4.758.54-.423.102-.688-.014-.232-.59.375-.474 2.463-2.328 4.709-.793zm-14.036-1.996c-.616-.1-.84.457-.02.551.822.095.72-.438.02-.551zm37.466 20.946c.472.174.311.708-.293.415-.604-.292-.529-.718.293-.415zm7.332-8.98c-1.91-.11-3.039 1.094-4.952 1.497-.719.151-.51-.217.075-.433 2.212-.821 3.035-1.796 5.225-1.619.612.052.112.581-.348.554zM26.961 68.31c-.629-.115-.6.359-.061.495.826.212 3.495-.028 4.296-.49.41-.237.186-.456-.311-.257-.921.373-2.859.445-3.924.25v.002zm-10.544-4.752c-.454.165-.35.709.094.564 1.7-.546 3.202-.61 4.512-.392.42.07.513-.22.078-.324-1.504-.359-2.606-.603-4.684.15v.002zM35.633 75.59c.103-.73-.434-1.245-.623-.584-.189.66.554 1.083.623.584zm28.91-4.32c-.281.461-.205.769.254.245.458-.523-.041-.59-.253-.246zm-10-10.94c.713.315.658 1.172-.308.607s-.895-1.136.308-.606zm13.26 3.826c-.365-.073-.55.142 0 .33.548.189 2.201.542 3.21-.33.483-.419.201-.499-.308-.257-1.107.528-2.117.41-2.901.256h-.001zm-4.199.712c2.08 1.171 2.229 3.935 1.738 5.474-.206.643-.434.16-.378-.16.519-2.983-.916-4.757-2.04-5.116s-.268-.731.68-.198zM40.509 70.13c.097.425.051.684-.168.373-1.2-1.725 1.357-3.693 1.98-4.808.275-.49.879-.529.596.15-.247.592-2.755 2.765-2.409 4.285zM55.46 45.324c1.349-.01 1.096.474-.079.516-1.174.042-1.258-.506.08-.516zm-5.662-3.18c-.152 3.192-2.376 5.915-2.498 9.942-.025.825-.51.677-.534-.19-.094-3.325 1.916-6.133 2.357-10.177.062-.57.718-.546.673.423l.002.002zm26.15-20.165c.36-1.188 1.002-1.094.7.208-.304 1.302-1.228 1.53-.7-.208zM4.866 44.496c1.19.359 1.096 1-.205.698-1.3-.301-1.533-1.225.205-.698zm29.1-17.525c.646.52.303 1-.339.453-.642-.547-.387-1.037.34-.453zm-14.899 5.594c-.587-.279-.695.032-.094.377 3.06 1.76 4.021 5.232 7.006 6.38.642.246.7-.248-.019-.623-3.018-1.577-3.461-4.506-6.893-6.134zm13.239-6.89c.718.441.298.996-.623.453-2.984-1.755-4.873-2.132-6.213-2.472-1.34-.34-.548-.564.205-.415.753.15 4.163.924 6.629 2.435h.002zM61.429 38.69c2.99-1.278 4.243-5.268 6.336-6.304.719-.356.1-.426-.585-.076-2.058 1.052-3.255 4.74-6.148 6.02-.626.278-.428.712.396.36zm-34.22 3.693c-2.782.629-5.073-1.634-8.168-.416-.302.12-.014.254.453.142 2.775-.667 5.469 1.625 8.074.604.535-.21.014-.415-.36-.33h.001zm25.748 3.893c.743-.26.328-.551-.623-.283-.868.245-3.47 1.539-4.098 5.417-.13.803.293.982.453.038.115-.678 1.12-4.071 4.268-5.172zm12.078-6.384c.67.174.892.67.052.538-1.065-.168-4.132-.705-8.037 1.32-.909.472-.733.123-.17-.33 1.634-1.311 5.378-2.252 8.155-1.528zm2.28.341c-1.088-.209-1.357.406.014.494 1.372.088.789-.34-.013-.494zM56.371 30.076c.658-.443.32-.564-.415-.226-.623.287-4.884 2.379-6.027 8.059-.318 1.581.52 2.097.77.706.492-2.728 1.934-6.02 5.67-8.538h.002zM35.85 27.274c-1.046-6.284 4.453-8.768 5.968-9.174.808-.216.166-.492-.638-.214-2.092.727-6.828 3.426-6.126 8.322.242 1.681.848 1.39.793 1.066h.003zm-.637 13.856c-.654-.233-.84.133-.047.547 5.043 2.633 4.26 9.608 4.193 10.674-.064 1.037.491.604.661-.113.15-.631 1.074-9.014-4.807-11.108zM45.45 51.966c-.007-1.424.813-1.326.757-.07-.057 1.257-.75 1.218-.757.07zm-1.408-12.559c-.289-1.184.49-.964.766-.271.797 2.004.387 4.667.295 5.066-.184.795-.49.532-.492-.093a19.54 19.54 0 00-.57-4.702h.001zm-13.76 22.874c1.535-.54 1.735.383.36.79-1.376.408-1.595-.355-.36-.79zm18.02-5.18c-.38-1.508.517-1.617.785-.27.267 1.346-.479 1.487-.785.27zm-9.587-22.038c-1.174-.62-.199-1.058.533-.705 2.647 1.276 3.405 3.744 3.59 5.92.075.886-.39.882-.503.212-.359-2.155-1.189-4.143-3.62-5.427zm-3.949 31.274c.794-1.036 1.335-.504.587.373-.748.878-1.227.462-.587-.373zm11.125-20.63c.262-2.243 1.07-2.068.775-.09-.295 1.976-.986 1.897-.775.09zm-4.985 8.221c.212-1.282.924-1.203.695-.037-.22 1.128-.866 1.077-.695.037zm-.59 3.161c.18-.794.81-.901.63.131-.633 3.613-2.255 5.022-4.216 7.489-.418.525-.837.287-.417-.396 1.531-2.493 3.17-3.524 4.003-7.222v-.002zm2.567-13.716c-.15-1.416.676-1.4.746-.145.07 1.255-.624 1.286-.746.145zm-12.145-3.264c1.28-.177 1.29.573.154.672-1.136.099-1.185-.53-.154-.672zm12.116 15.793c-.354 1.672.53 1.6.829.478.947-3.565.703-8.146.535-9.279-.168-1.133-.816-1.18-.807-.289.015 1.477.257 5.258-.558 9.09zm-5.047-3.054c.052-.888.726-.59.719.423-.037 3.8-2.334 7.05-5.204 8.486-.93.466-.997-.086-.334-.5 1.427-.893 4.516-3.026 4.824-8.408h-.005zm3.191-8.06c-.389-1.27.522-1.021.78-.251.773 2.321.485 5.818.22 6.668-.264.85-.542.557-.505-.123.038-.68.333-3.587-.495-6.295zm-3.574 4.364c-.256-1.606.687-1.637.842-.21.156 1.427-.634 1.505-.842.21z" fill="#3B9C51"/></svg>