<svg width="41" height="41" viewBox="0 0 41 41" fill="none" xmlns="http://www.w3.org/2000/svg">
<path d="M20.5026 0C14.6454 0 9.85742 4.78796 9.85742 10.6451C9.85742 16.5023 14.6454 21.2903 20.5026 21.2903C26.3597 21.2903 31.1477 16.5023 31.1477 10.6451C31.1477 4.78796 26.3597 0 20.5026 0Z" fill="#34924E"/>
<path d="M38.7719 29.797C38.493 29.0997 38.1212 28.449 37.7028 27.8447C35.5644 24.6836 32.2641 22.5918 28.5452 22.0804C28.0804 22.034 27.5691 22.1269 27.1972 22.4058C25.2448 23.8469 22.9205 24.5906 20.5033 24.5906C18.086 24.5906 15.7617 23.8469 13.8093 22.4058C13.4374 22.1269 12.9261 21.9875 12.4613 22.0804C8.74245 22.5918 5.39554 24.6836 3.30372 27.8447C2.88535 28.449 2.51344 29.1463 2.23459 29.797C2.09516 30.076 2.14161 30.4014 2.28103 30.6803C2.65295 31.3311 3.11776 31.9819 3.53612 32.5397C4.18689 33.423 4.88419 34.2132 5.67448 34.9569C6.32524 35.6077 7.06899 36.212 7.81283 36.8163C11.4851 39.559 15.9013 41 20.4568 41C25.0124 41 29.4285 39.5589 33.1008 36.8163C33.8445 36.2585 34.5883 35.6077 35.2391 34.9569C35.9829 34.2132 36.7266 33.4229 37.3775 32.5397C37.8423 31.9354 38.2608 31.3311 38.6326 30.6803C38.8649 30.4014 38.9113 30.0759 38.7719 29.797Z" fill="#34924E"/>
</svg>
