<svg width="83" height="83" fill="none" xmlns="http://www.w3.org/2000/svg"><path d="M24.227 13.274l-1.05 2.218 2.42 1.145 1.05-2.218-2.42-1.145zm-2.161 4.56L7.282 49.042a20.16 20.16 0 00-1.928 8.575h2.678c0-2.552.578-5.122 1.67-7.43l14.784-31.208-2.42-1.145z" fill="#E3BE4F"/><path d="M54.887 26.774c-5.143 0-9.953 1.412-14.106 3.834L26.646.766a1.341 1.341 0 00-2.42 0L2.442 46.75A25.534 25.534 0 000 57.617C0 71.613 11.387 83 25.488 83a25.23 25.23 0 0014.315-4.428C44.166 81.36 49.334 83 54.886 83 70.39 83 83 70.388 83 54.887c0-15.5-12.61-28.113-28.113-28.113zM25.383 80.323c-12.52 0-22.706-10.185-22.706-22.706 0-3.342.755-6.703 2.187-9.722l20.572-43.43 13.08 27.615c-7.096 5.107-11.742 13.416-11.742 22.807 0 8.916 4.185 16.86 10.68 22.014-3.591 2.234-7.708 3.422-12.07 3.422zm29.504 0c-14.026 0-25.435-11.41-25.435-25.436s11.41-25.435 25.435-25.435c14.026 0 25.436 11.41 25.436 25.435 0 14.026-11.41 25.436-25.436 25.436z" fill="#E3BE4F"/><path d="M54.887 33.468c-6.642 0-12.048 4.205-12.048 9.37 0 5.167 5.406 9.372 12.048 9.372 6.643 0 12.049-4.205 12.049-9.371s-5.406-9.371-12.049-9.371zm0 16.064c-5.167 0-9.37-3.002-9.37-6.693s4.203-6.694 9.37-6.694c5.168 0 9.371 3.003 9.371 6.694 0 3.69-4.203 6.693-9.37 6.693z" fill="#E3BE4F"/><path d="M58.472 39.579a11.387 11.387 0 01-7.172 0l-.86 2.537c1.416.479 2.913.723 4.447.723 1.534 0 3.03-.244 4.446-.723l-.861-2.537zm9.17 18.547a11.1 11.1 0 01-2.406 2.722 11.056 11.056 0 01-3.14 1.824l.94 2.507a13.76 13.76 0 003.9-2.26 13.783 13.783 0 002.98-3.378l-2.274-1.415z" fill="#E3BE4F"/><path d="M75.974 55.184c-1.291-1.664-3.247-2.705-5.506-2.927-3.128-.32-6.522.902-9.317 3.325-4.93 4.27-6.388 11.032-3.255 15.072 1.292 1.664 3.248 2.706 5.507 2.928.32.032.643.048.969.048 2.846 0 5.84-1.2 8.348-3.375 4.93-4.27 6.39-11.032 3.254-15.07zm-5.006 13.049c-2.21 1.915-4.94 2.915-7.302 2.685-1.54-.151-2.804-.81-3.653-1.905-2.277-2.934-.98-8.052 2.892-11.407 1.998-1.732 4.421-2.719 6.614-2.719.232 0 .46.012.686.033 1.54.152 2.804.81 3.653 1.905 2.278 2.936.981 8.053-2.89 11.408zm-26.432-7.385a11.087 11.087 0 01-2.403-2.722L39.86 59.54a13.804 13.804 0 002.979 3.378c1.189.976 2.5 1.735 3.898 2.26l.941-2.507a11.08 11.08 0 01-3.142-1.824z" fill="#E3BE4F"/><path d="M48.623 55.583c-2.797-2.423-6.197-3.645-9.317-3.325-2.259.222-4.213 1.262-5.507 2.928-3.135 4.04-1.674 10.8 3.255 15.072 2.51 2.174 5.502 3.375 8.348 3.375.325 0 .65-.016.97-.048 2.258-.222 4.212-1.262 5.505-2.928 3.136-4.041 1.675-10.803-3.254-15.074zm1.14 13.43c-.85 1.094-2.113 1.754-3.654 1.905-2.37.23-5.093-.77-7.302-2.685-3.872-3.355-5.168-8.472-2.891-11.407.849-1.094 2.112-1.754 3.653-1.905a7.05 7.05 0 01.686-.034c2.192 0 4.617.987 6.616 2.72 3.871 3.354 5.168 8.47 2.891 11.406z" fill="#E3BE4F"/></svg>