<svg width="78" height="78" fill="none" xmlns="http://www.w3.org/2000/svg"><path d="M49.461 55.702c-3.137 0-6.064-.92-8.526-2.502v13.604h2.245c.841 0 1.523.682 1.523 1.523v8.15c0 .841-.682 1.523-1.523 1.523H14.259a1.523 1.523 0 01-1.524-1.523v-8.15c0-.84.682-1.523 1.524-1.523h2.244V12.09C16.503 5.423 21.983 0 28.719 0c6.736 0 12.216 5.423 12.216 12.089v14.508a15.71 15.71 0 018.526-2.502c8.714 0 15.803 7.09 15.803 15.803 0 8.715-7.089 15.804-15.803 15.804zm-29.911-.617h18.339v-3.483h-18.34v3.483zm-3.768 19.868h25.874v-5.102H15.782v5.102zm22.107-8.149v-8.672h-18.34v8.672h18.34zm0-54.715c0-4.986-4.114-9.042-9.17-9.042s-9.17 4.056-9.17 9.042v4.634h8.28c.841 0 1.524.682 1.524 1.524v3.948a1.523 1.523 0 01-3.047 0V19.77H19.55v21.216h6.756v-5.017a1.523 1.523 0 113.047 0v6.54c0 .842-.683 1.524-1.524 1.524h-8.28v4.522h16.696a15.712 15.712 0 01-2.587-8.657c0-4.148 1.607-7.929 4.231-10.751V12.089zM49.46 27.142c-7.034 0-12.756 5.723-12.756 12.756 0 7.034 5.723 12.757 12.756 12.757 7.034 0 12.757-5.723 12.757-12.757S56.495 27.142 49.46 27.142z" fill="#E3BE4F"/><path d="M50.534 49.256a1.523 1.523 0 01-2.095.002c-.652-.617-6.365-6.168-6.365-11.205 0-4.087 3.325-7.412 7.412-7.412s7.412 3.325 7.412 7.412c0 5.022-5.712 10.586-6.364 11.203zm-1.048-15.568a4.37 4.37 0 00-4.365 4.365c0 2.576 2.59 5.97 4.364 7.914 1.775-1.948 4.366-5.346 4.366-7.914a4.37 4.37 0 00-4.365-4.365zm-20.25-3.995a1.54 1.54 0 01-1.515.937 1.537 1.537 0 01-1.356-1.102 1.534 1.534 0 01.577-1.656 1.539 1.539 0 011.732-.028c.6.397.834 1.186.562 1.85z" fill="#E3BE4F"/></svg>