<svg width="82" height="82" fill="none" xmlns="http://www.w3.org/2000/svg"><path d="M70.469 37.156V41c0 16.249-13.22 29.469-29.469 29.469-5.835 0-11.41-1.676-16.218-4.861l5.331-5.387-25.508-6.945 6.785 25.853 6.075-6.135C24.23 77.984 32.543 80.72 41 80.72 62.9 80.719 80.72 62.9 80.72 41v-3.844H70.47zM78.156 41c0 20.489-16.667 37.156-37.156 37.156-8.27 0-16.39-2.795-22.864-7.872l-.898-.703-4.509 4.553-4.521-17.222 16.994 4.628-4.353 4.398 1.192.88c5.518 4.065 12.074 6.213 18.96 6.213 17.661 0 32.03-14.369 32.03-32.031v-1.281h5.125V41zm-66.625 0c0-16.249 13.22-29.469 29.469-29.469 5.93 0 11.586 1.732 16.455 5.023l-5.413 5.357 25.324 6.797-6.39-25.547-6.136 6.076A39.784 39.784 0 0041 1.28C19.1 1.281 1.281 19.1 1.281 41v3.844h10.25V41zM8.97 42.281H3.844V41C3.844 20.512 20.512 3.844 41 3.844c8.395 0 16.614 2.875 23.144 8.093l.891.713 4.547-4.503 4.24 16.956-16.806-4.51 4.378-4.331-1.187-.892C54.63 11.183 47.987 8.969 41 8.969 23.338 8.969 8.969 23.338 8.969 41v1.281z" fill="#E3BE4F"/><path d="M46.125 21.781a6.413 6.413 0 00-6.406-6.406 6.413 6.413 0 00-6.407 6.406 6.413 6.413 0 006.407 6.407 6.413 6.413 0 006.406-6.407zm-10.25 0a3.848 3.848 0 013.844-3.843 3.848 3.848 0 013.843 3.843 3.848 3.848 0 01-3.843 3.844 3.849 3.849 0 01-3.844-3.844zm-7.687 3.844a3.848 3.848 0 00-3.844-3.844 3.849 3.849 0 00-3.844 3.844 3.849 3.849 0 003.844 3.844 3.848 3.848 0 003.843-3.844zm-5.125 0c0-.706.575-1.281 1.28-1.281.707 0 1.282.575 1.282 1.281s-.575 1.281-1.281 1.281a1.283 1.283 0 01-1.282-1.281zm29.468 24.344h10.25a5.13 5.13 0 005.125-5.125 5.09 5.09 0 00-1.503-3.622 5.09 5.09 0 00-3.622-1.503h-9.715c-1.524-3.753-5.209-6.407-9.504-6.407-1.159 0-2.306.215-3.397.596-1.67-2.768-4.649-4.44-8.134-4.44-4.945 0-8.968 4.024-8.968 8.97 0 1.345.304 2.654.873 3.843h-2.155a5.13 5.13 0 00-5.125 5.125 5.09 5.09 0 001.503 3.622 5.09 5.09 0 003.622 1.503h15.375c.706 0 1.282.575 1.282 1.282 0 .342-.131.657-.393.912a1.227 1.227 0 01-.889.369h-1.281a3.848 3.848 0 00-3.844 3.843c0 1.04.406 2.006 1.12 2.701a3.771 3.771 0 002.724 1.143h19.219a5.13 5.13 0 005.125-5.125 5.09 5.09 0 00-1.503-3.622 5.09 5.09 0 00-3.622-1.503H52.53a1.283 1.283 0 01-1.281-1.281c0-.342.13-.657.392-.912.232-.239.547-.37.89-.37zm-1.387-7.688H35.983a7.734 7.734 0 013.852-5.45 7.76 7.76 0 013.727-.956c3.803 0 6.97 2.775 7.582 6.406zm-25.519-3.843a6.414 6.414 0 016.406-6.407c2.52 0 4.602 1.117 5.831 3.027a10.286 10.286 0 00-4.469 7.223h-6.442a6.315 6.315 0 01-1.326-3.843zm26.906 16.656h2.563a2.54 2.54 0 011.81.752c.484.485.752 1.127.752 1.81a2.565 2.565 0 01-2.562 2.563H35.875c-.342 0-.657-.13-.912-.392a1.227 1.227 0 01-.37-.89c0-.706.576-1.28 1.282-1.28h1.281c1.04 0 2.005-.407 2.701-1.12A3.771 3.771 0 0041 53.812a3.848 3.848 0 00-3.844-3.844H21.781a2.54 2.54 0 01-1.81-.752 2.548 2.548 0 01-.752-1.81 2.565 2.565 0 012.562-2.563h32.032v-1.282c0-.434-.027-.86-.08-1.28h9.048a2.54 2.54 0 011.81.751c.485.486.753 1.128.753 1.81a2.565 2.565 0 01-2.563 2.563h-10.25a3.751 3.751 0 00-2.7 1.12 3.771 3.771 0 00-1.144 2.724 3.848 3.848 0 003.844 3.844z" fill="#E3BE4F"/><path d="M41 47.515h5.125v2.563H41v-2.563zm5.125 7.579h2.563v2.562h-2.563v-2.562zm6.406-28.188h2.563v2.563H52.53v-2.563zm5.125 6.407h2.563v2.562h-2.563v-2.563z" fill="#E3BE4F"/></svg>